<svg width="98" height="98" viewBox="0 0 98 98" fill="none" xmlns="http://www.w3.org/2000/svg">
<g clip-path="url(#clip0_332_2)">
<path d="M46.5 96.9462C71.629 96.9462 92 75.4799 92 48.9999C92 22.52 71.629 1.05371 46.5 1.05371C21.371 1.05371 1 22.52 1 48.9999C1 75.4799 21.371 96.9462 46.5 96.9462Z" fill="white" stroke="black" stroke-width="2"/>
<path d="M61 50.5807C62.6569 50.5807 64 46.8064 64 42.1506C64 37.4947 62.6569 33.7205 61 33.7205C59.3431 33.7205 58 37.4947 58 42.1506C58 46.8064 59.3431 50.5807 61 50.5807Z" fill="black"/>
<path d="M61 50.5807C62.6569 50.5807 64 46.8064 64 42.1506C64 37.4947 62.6569 33.7205 61 33.7205C59.3431 33.7205 58 37.4947 58 42.1506C58 46.8064 59.3431 50.5807 61 50.5807Z" fill="black"/>
<path d="M61 50.5807C62.6569 50.5807 64 46.8064 64 42.1506C64 37.4947 62.6569 33.7205 61 33.7205C59.3431 33.7205 58 37.4947 58 42.1506C58 46.8064 59.3431 50.5807 61 50.5807Z" fill="black"/>
<path d="M78 50.5807C79.6569 50.5807 81 46.8064 81 42.1506C81 37.4947 79.6569 33.7205 78 33.7205C76.3431 33.7205 75 37.4947 75 42.1506C75 46.8064 76.3431 50.5807 78 50.5807Z" fill="black"/>
<path d="M78 50.5807C79.6569 50.5807 81 46.8064 81 42.1506C81 37.4947 79.6569 33.7205 78 33.7205C76.3431 33.7205 75 37.4947 75 42.1506C75 46.8064 76.3431 50.5807 78 50.5807Z" fill="black"/>
<path d="M78 50.5807C79.6569 50.5807 81 46.8064 81 42.1506C81 37.4947 79.6569 33.7205 78 33.7205C76.3431 33.7205 75 37.4947 75 42.1506C75 46.8064 76.3431 50.5807 78 50.5807Z" fill="black"/>
<path d="M46 70.6022C62 80.086 81.5 78.5054 96 65.8602" stroke="black" stroke-width="3" stroke-linecap="round"/>
</g>
<defs>
<clipPath id="clip0_332_2">
<rect width="98" height="98" fill="white"/>
</clipPath>
</defs>
</svg>
